<?xml version="1.0" encoding="utf-8"?>
<!-- Generator: Adobe Illustrator 16.0.0, SVG Export Plug-In . SVG Version: 6.00 Build 0)  -->
<!DOCTYPE svg PUBLIC "-//W3C//DTD SVG 1.0//EN" "http://www.w3.org/TR/2001/REC-SVG-20010904/DTD/svg10.dtd">
<svg version="1.0" id="Layer_1" xmlns="http://www.w3.org/2000/svg" xmlns:xlink="http://www.w3.org/1999/xlink" x="0px" y="0px"
	 width="100px" height="100px" viewBox="0 0 100 100" enable-background="new 0 0 100 100" xml:space="preserve">
<path d="M43.333,66.667c0-12.194,9.408-22.214,21.338-23.236c-0.66-2.154-1.416-4.238-2.366-6.126
	C50.95,45.306,35.716,45.3,24.368,37.298c-1.009,2.019-1.81,4.252-2.493,6.563L12.552,40L10,46.159l10.449,4.322
	c-0.267,2.012-0.446,4.063-0.446,6.186h-10v6.666h10.469c0.277,1.96,0.693,3.854,1.201,5.671l-11.67,4.837L12.552,80l11.42-4.733
	C28.164,84.153,35.271,90,43.337,90c3.863,0,7.496-1.367,10.706-3.743C47.61,82.103,43.333,74.876,43.333,66.667z"/>
<path d="M52.688,26.172l5.645-13.62L52.175,10l-5.664,13.679c-1.042-0.209-2.097-0.346-3.174-0.346
	c-1.081,0-2.139,0.137-3.181,0.346L34.492,10l-6.159,2.552l5.645,13.627c-2.207,1.393-4.244,3.229-6.035,5.481
	c9.16,6.614,21.625,6.614,30.788,0C56.94,29.407,54.899,27.565,52.688,26.172z"/>
<path d="M80.563,75.847c1.741-2.637,2.77-5.788,2.77-9.18C83.333,57.461,75.872,50,66.667,50C57.461,50,50,57.461,50,66.667
	c0,9.205,7.461,16.666,16.667,16.666c3.395,0,6.546-1.028,9.183-2.773L85.286,90L90,85.286L80.563,75.847z M66.667,76.667
	c-5.524,0-10-4.479-10-10c0-5.527,4.476-10,10-10c5.523,0,10,4.473,10,10C76.667,72.188,72.19,76.667,66.667,76.667z"/>
</svg>
