<svg width="24" height="24" viewBox="0 0 24 24" fill="none" xmlns="http://www.w3.org/2000/svg">
<path fill-rule="evenodd" clip-rule="evenodd" d="M12 7C10.0428 7 8.41593 8.19695 7.8335 9.80733C7.70603 10.1598 7.39219 10.4113 7.02046 10.4591C5.27665 10.683 4 12.09 4 13.7143C4 15.4835 5.52047 17 7.5 17C8.05228 17 8.5 17.4477 8.5 18C8.5 18.5523 8.05228 19 7.5 19C4.50897 19 2 16.6789 2 13.7143C2 11.1997 3.80914 9.14473 6.18099 8.58194C7.19963 6.45093 9.43762 5 12 5C15.1743 5 17.8715 7.24014 18.331 10.2344C20.3965 10.6456 22 12.3977 22 14.5714C22 17.0627 19.894 19 17.4 19C16.8477 19 16.4 18.5523 16.4 18C16.4 17.4477 16.8477 17 17.4 17C18.8825 17 20 15.8673 20 14.5714C20 13.2756 18.8825 12.1429 17.4 12.1429C16.8477 12.1429 16.4 11.6951 16.4 11.1429C16.4 8.90024 14.4766 7 12 7Z" fill="black"/>
<path fill-rule="evenodd" clip-rule="evenodd" d="M12 11C11.4477 11 11 11.4477 11 12L11 18C11 18.5523 11.4477 19 12 19C12.5523 19 13 18.5523 13 18L13 12C13 11.4477 12.5523 11 12 11Z" fill="black"/>
<path fill-rule="evenodd" clip-rule="evenodd" d="M9.29289 15.2929C8.90237 15.6834 8.90237 16.3166 9.29289 16.7071L11.2929 18.7071C11.4804 18.8946 11.7348 19 12 19C12.2652 19 12.5196 18.8946 12.7071 18.7071L14.7071 16.7071C15.0976 16.3166 15.0976 15.6834 14.7071 15.2929C14.3166 14.9024 13.6834 14.9024 13.2929 15.2929L12 16.5858L10.7071 15.2929C10.3166 14.9024 9.68342 14.9024 9.29289 15.2929Z" fill="black"/>
</svg>
