<?xml version="1.0" encoding="utf-8"?>
<!-- Generator: Adobe Illustrator 23.0.6, SVG Export Plug-In . SVG Version: 6.00 Build 0)  -->
<svg version="1.1" id="Layer_1" xmlns="http://www.w3.org/2000/svg" xmlns:xlink="http://www.w3.org/1999/xlink" x="0px" y="0px"
	 viewBox="0 0 128 128" style="enable-background:new 0 0 128 128;" xml:space="preserve">
<title>STORY BOOK</title>
<g>
	<path d="M110.6,38.3H106v-3.5c0-1-0.8-1.7-1.7-1.8c0,0,0,0,0,0H70.8c-2.7,0-5.2,1.2-6.8,3.3c-1.6-2.1-4.1-3.3-6.8-3.3H23.7
		c-1,0-1.7,0.8-1.7,1.8v3.5h-4.6c-1,0-1.8,0.8-1.8,1.8v57c0,1,0.8,1.7,1.8,1.8h93.1c1,0,1.7-0.8,1.8-1.8V40
		C112.3,39.1,111.5,38.3,110.6,38.3z M70.8,36.5h31.7v51.9H70.8c-2.9,0-4.6,1.4-5,1.6V41.6c0-0.4,0-0.7-0.1-1.1
		C66.2,38.3,68.3,36.5,70.8,36.5z M25.5,36.5h31.7c2.6,0,4.7,1.9,5,4.1c0,0.4-0.1,0.7-0.1,1.1v48.3c-0.3-0.1-2.1-1.6-5-1.6H25.5
		L25.5,36.5L25.5,36.5z M19.2,41.8H22v48.3c0,1,0.8,1.8,1.8,1.8h33.5c2,0,3.9,1.1,4.8,3.4H19.2L19.2,41.8z M108.8,95.3H66
		c0.8-2.2,2.8-3.4,4.8-3.4h33.5c1,0,1.8-0.8,1.8-1.8V41.8h2.8L108.8,95.3z"/>
	<path d="M32.7,50h22.5c1,0,1.8-0.8,1.8-1.8s-0.8-1.8-1.8-1.8H32.7c-1,0-1.8,0.8-1.8,1.8S31.7,50,32.7,50z"/>
	<path d="M32.7,59.3h22.5c1,0,1.8-0.8,1.8-1.8s-0.8-1.8-1.8-1.8H32.7c-1,0-1.8,0.8-1.8,1.8S31.7,59.3,32.7,59.3z"/>
	<path d="M32.7,68.7h22.5c1,0,1.8-0.8,1.8-1.8s-0.8-1.8-1.8-1.8H32.7c-1,0-1.8,0.8-1.8,1.8S31.7,68.7,32.7,68.7z"/>
	<path d="M32.7,78h22.5c1,0,1.8-0.8,1.8-1.8s-0.8-1.8-1.8-1.8H32.7c-1,0-1.8,0.8-1.8,1.8S31.7,78,32.7,78z"/>
	<path d="M72.8,50h22.5c1,0,1.8-0.8,1.8-1.8s-0.8-1.8-1.8-1.8H72.8c-1,0-1.8,0.8-1.8,1.8S71.9,50,72.8,50z"/>
	<path d="M72.8,59.3h22.5c1,0,1.8-0.8,1.8-1.8s-0.8-1.8-1.8-1.8H72.8c-1,0-1.8,0.8-1.8,1.8S71.9,59.3,72.8,59.3z"/>
	<path d="M72.8,68.7h22.5c1,0,1.8-0.8,1.8-1.8s-0.8-1.8-1.8-1.8H72.8c-1,0-1.8,0.8-1.8,1.8S71.9,68.7,72.8,68.7z"/>
	<path d="M72.8,78h22.5c1,0,1.8-0.8,1.8-1.8s-0.8-1.8-1.8-1.8H72.8c-1,0-1.8,0.8-1.8,1.8S71.9,78,72.8,78z"/>
</g>
</svg>
